<svg width="24" height="24" viewBox="0 0 24 24" fill="none" xmlns="http://www.w3.org/2000/svg">
<path d="M7.55119 3C6.06989 3 4.67347 3.59046 3.62629 4.6584C2.57491 5.73063 1.99578 7.15485 2.00002 8.67012C2.00004 10.1854 2.58395 11.6058 3.63524 12.6779L12.0063 20L20.3695 12.6946C21.4209 11.6224 21.9999 10.1982 22 8.6831C22.0042 7.16791 21.4294 5.74362 20.3779 4.67131C19.3265 3.59903 17.9343 3.01291 16.4488 3.01291C14.9633 3.01291 13.5669 3.60337 12.5155 4.67561L12.0063 5.19484L11.4888 4.66701C10.4374 3.59481 9.03678 3 7.55119 3Z" stroke="#111111" stroke-width="1.5"/>
</svg>
