<!--<svg width="20" height="17" viewBox="0 0 20 17" fill="none" xmlns="http://www.w3.org/2000/svg">-->
<!--<path d="M5.99607 1C4.6629 1 3.40613 1.521 2.46366 2.4633C1.51741 3.40938 0.996206 4.66605 1.00002 6.00305C1.00004 7.34009 1.52556 8.59334 2.47172 9.53933L10.0057 16L17.5325 9.55406C18.4788 8.60799 18.9999 7.35139 19 6.0145C19.0038 4.67756 18.4865 3.42084 17.5401 2.47469C16.5938 1.52856 15.3408 1.01139 14.0039 1.01139C12.667 1.01139 11.4102 1.53239 10.4639 2.47848L10.0057 2.93663L9.53988 2.47089C8.59366 1.52483 7.3331 1 5.99607 1Z" fill="#A4A4A4" stroke="#A4A4A4" stroke-width="1.5" stroke-linejoin="round"/>-->
<!--</svg>-->

<svg width="20" height="18" viewBox="0 0 20 18" fill="none" xmlns="http://www.w3.org/2000/svg">
    <path d="M18.4577 1.59133C17.969 1.08683 17.3888 0.686629 16.7502 0.413583C16.1115 0.140537 15.427 0 14.7358 0C14.0445 0 13.36 0.140537 12.7214 0.413583C12.0827 0.686629 11.5025 1.08683 11.0138 1.59133L9.99962 2.63785L8.98542 1.59133C7.9983 0.572757 6.65948 0.000527962 5.26349 0.000527973C3.86749 0.000527984 2.52867 0.572757 1.54155 1.59133C0.554435 2.6099 -0.00012206 3.99139 -0.00012207 5.43187C-0.000122081 6.87235 0.554435 8.25383 1.54155 9.2724L2.55576 10.3189L9.99962 18L17.4435 10.3189L18.4577 9.2724C18.9466 8.76814 19.3345 8.16942 19.5991 7.51045C19.8637 6.85148 19.9999 6.14517 19.9999 5.43187C19.9999 4.71857 19.8637 4.01225 19.5991 3.35328C19.3345 2.69431 18.9466 2.09559 18.4577 1.59133Z" fill="#F30E1C"/>
</svg>
