<svg width="160" height="134" viewBox="0 0 160 134" fill="none" xmlns="http://www.w3.org/2000/svg">
    <g clip-path="url(#clip0)">
        <path d="M7.43453 127.688C9.65389 131.817 14.3642 133.59 14.3642 133.59C14.3642 133.59 15.4762 128.667 13.2568 124.538C11.0374 120.409 6.32716 118.636 6.32716 118.636C6.32716 118.636 5.21517 123.558 7.43453 127.688Z" fill="#2F2E41"/>
        <path d="M8.96009 126.329C12.967 128.748 14.5101 133.551 14.5101 133.551C14.5101 133.551 9.55689 134.434 5.55003 132.016C1.54317 129.597 0 124.793 0 124.793C0 124.793 4.95323 123.911 8.96009 126.329Z" fill="black"/>
        <path d="M98.7945 6.43311H73.7944V6.79141H98.7945V6.43311Z" fill="#F2F2F2"/>
        <path d="M92.0085 6.70166H91.6514V10.016H92.0085V6.70166Z" fill="#F2F2F2"/>
        <path d="M81.1157 6.70166H80.7585V10.016H81.1157V6.70166Z" fill="#F2F2F2"/>
        <path d="M111.473 23.6313H86.4729V23.9897H111.473V23.6313Z" fill="#F2F2F2"/>
        <path d="M93.6157 20.4067H93.2585V23.721H93.6157V20.4067Z" fill="#F2F2F2"/>
        <path d="M104.509 20.4067H104.151V23.721H104.509V20.4067Z" fill="#F2F2F2"/>
        <path d="M144.687 31.6934H119.687V32.0517H144.687V31.6934Z" fill="#F2F2F2"/>
        <path d="M126.83 28.4688H126.473V31.783H126.83V28.4688Z" fill="#F2F2F2"/>
        <path d="M137.723 28.4688H137.366V31.783H137.723V28.4688Z" fill="#F2F2F2"/>
        <path d="M151.667 114.612H126.667V114.97H151.667V114.612Z" fill="#F2F2F2"/>
        <path d="M133.81 111.388H133.453V114.702H133.81V111.388Z" fill="#F2F2F2"/>
        <path d="M144.702 111.388H144.345V114.702H144.702V111.388Z" fill="#F2F2F2"/>
        <path d="M99.5086 57.312H74.5085V57.6703H99.5086V57.312Z" fill="#F2F2F2"/>
        <path d="M81.6516 54.0874H81.2944V57.4017H81.6516V54.0874Z" fill="#F2F2F2"/>
        <path d="M92.5444 54.0874H92.1873V57.4017H92.5444V54.0874Z" fill="#F2F2F2"/>
        <path d="M51.6667 106.237H26.6667V106.596H51.6667V106.237Z" fill="#F2F2F2"/>
        <path d="M44.7024 103.013H44.3452V106.327H44.7024V103.013Z" fill="#F2F2F2"/>
        <path d="M99.0557 126.067H56.7725V125.762H98.7514V110.961H60.3271L58.4605 107.059L58.7348 106.927L60.5185 110.655H99.0557V126.067Z" fill="#2F2E41"/>
        <path d="M62.4001 133.545C64.1641 133.545 65.5942 132.11 65.5942 130.34C65.5942 128.57 64.1641 127.136 62.4001 127.136C60.6361 127.136 59.2061 128.57 59.2061 130.34C59.2061 132.11 60.6361 133.545 62.4001 133.545Z" fill="#3F3D56"/>
        <path d="M93.8845 133.545C95.6485 133.545 97.0785 132.11 97.0785 130.34C97.0785 128.57 95.6485 127.136 93.8845 127.136C92.1205 127.136 90.6904 128.57 90.6904 130.34C90.6904 132.11 92.1205 133.545 93.8845 133.545Z" fill="#3F3D56"/>
        <path d="M130.996 64.2677C132.088 64.2677 132.974 63.3796 132.974 62.284C132.974 61.1884 132.088 60.3003 130.996 60.3003C129.904 60.3003 129.019 61.1884 129.019 62.284C129.019 63.3796 129.904 64.2677 130.996 64.2677Z" fill="#3F3D56"/>
        <path d="M103.578 105.925H56.0514L45.7678 72.2021H114.169L114.106 72.4006L103.578 105.925ZM56.2765 105.62H103.355L113.754 72.5073H46.179L56.2765 105.62Z" fill="#2F2E41"/>
        <path d="M99.8681 104.17H58.1238L49.0913 74.2622H109.17L109.115 74.4383L99.8681 104.17Z" fill="#F2F2F2"/>
        <path d="M115.021 69.1898L114.727 69.1115L116.734 61.521H128.411V61.8263H116.968L115.021 69.1898Z" fill="#2F2E41"/>
        <path d="M110.751 82.4258H49.0913V82.731H110.751V82.4258Z" fill="#2F2E41"/>
        <path d="M80.1194 72.355H79.8152V105.773H80.1194V72.355Z" fill="#2F2E41"/>
        <path d="M93.7388 72.3454L91.5552 105.762L91.8588 105.782L94.0424 72.3654L93.7388 72.3454Z" fill="#2F2E41"/>
        <path d="M66.2023 72.3449L65.8987 72.3647L68.0696 105.782L68.3733 105.763L66.2023 72.3449Z" fill="#2F2E41"/>
        <path d="M107.22 93.6694H52.5198V93.9746H107.22V93.6694Z" fill="#2F2E41"/>
        <path d="M160 133.468H0V133.826H160V133.468Z" fill="#2F2E41"/>
        <path d="M35.7585 63.2241H10.7585V63.5824H35.7585V63.2241Z" fill="#F2F2F2"/>
        <path d="M17.9016 59.999H17.5444V63.3133H17.9016V59.999Z" fill="#F2F2F2"/>
        <path d="M28.7944 59.999H28.4373V63.3133H28.7944V59.999Z" fill="#F2F2F2"/>
        <path d="M44.5085 10.1953H19.5085V10.5536H44.5085V10.1953Z" fill="#F2F2F2"/>
        <path d="M37.7229 10.4639H37.3657V13.7782H37.7229V10.4639Z" fill="#F2F2F2"/>
        <path d="M26.83 10.4639H26.4729V13.7782H26.83V10.4639Z" fill="#F2F2F2"/>
        <path d="M69.6873 45.4878H44.6873V45.8461H69.6873V45.4878Z" fill="#F2F2F2"/>
        <path d="M62.9016 45.7568H62.5444V49.0711H62.9016V45.7568Z" fill="#F2F2F2"/>
        <path d="M52.0088 45.7568H51.6516V49.0711H52.0088V45.7568Z" fill="#F2F2F2"/>
        <path d="M27.1873 45.3086H2.18726V45.6669H27.1873V45.3086Z" fill="#F2F2F2"/>
        <path d="M20.4016 45.5776H20.0444V48.8919H20.4016V45.5776Z" fill="#F2F2F2"/>
        <path d="M9.50875 45.5776H9.15161V48.8919H9.50875V45.5776Z" fill="#F2F2F2"/>
        <path d="M57.1873 27.3936H32.1873V27.7519H57.1873V27.3936Z" fill="#F2F2F2"/>
        <path d="M39.33 24.1689H38.9729V27.4832H39.33V24.1689Z" fill="#F2F2F2"/>
        <path d="M50.2229 24.1689H49.8657V27.4832H50.2229V24.1689Z" fill="#F2F2F2"/>
        <path d="M30 87.4092H5V87.7675H30V87.4092Z" fill="#F2F2F2"/>
        <path d="M12.1428 84.1846H11.7856V87.4989H12.1428V84.1846Z" fill="#F2F2F2"/>
        <path d="M23.0359 84.1846H22.6787V87.4989H23.0359V84.1846Z" fill="#F2F2F2"/>
    </g>
    <defs>
        <clipPath id="clip0">
            <rect width="160" height="134" fill="white"/>
        </clipPath>
    </defs>
</svg>