<svg width="160" height="134" viewBox="0 0 160 134" fill="none" xmlns="http://www.w3.org/2000/svg">
    <g clip-path="url(#clip0)">
        <path d="M152.565 127.688C150.346 131.817 145.636 133.59 145.636 133.59C145.636 133.59 144.524 128.667 146.743 124.538C148.962 120.409 153.673 118.636 153.673 118.636C153.673 118.636 154.785 123.558 152.565 127.688Z" fill="#2F2E41"/>
        <path d="M151.04 126.329C147.033 128.748 145.49 133.551 145.49 133.551C145.49 133.551 150.443 134.434 154.45 132.016C158.457 129.597 160 124.793 160 124.793C160 124.793 155.047 123.911 151.04 126.329Z" fill="black"/>
        <path d="M61.206 6.43311H86.2061V6.79141H61.206V6.43311Z" fill="#F2F2F2"/>
        <path d="M67.9915 6.70166H68.3486V10.016H67.9915V6.70166Z" fill="#F2F2F2"/>
        <path d="M78.8841 6.70166H79.2412V10.016H78.8841V6.70166Z" fill="#F2F2F2"/>
        <path d="M48.5274 23.6313H73.5273V23.9897H48.5274V23.6313Z" fill="#F2F2F2"/>
        <path d="M66.3841 20.4067H66.7412V23.721H66.3841V20.4067Z" fill="#F2F2F2"/>
        <path d="M55.4915 20.4067H55.8486V23.721H55.4915V20.4067Z" fill="#F2F2F2"/>
        <path d="M15.3125 31.6934H40.3125V32.0517H15.3125V31.6934Z" fill="#F2F2F2"/>
        <path d="M33.1702 28.4688H33.5273V31.783H33.1702V28.4688Z" fill="#F2F2F2"/>
        <path d="M22.2766 28.4688H22.6338V31.783H22.2766V28.4688Z" fill="#F2F2F2"/>
        <path d="M8.33301 114.612H33.333V114.97H8.33301V114.612Z" fill="#F2F2F2"/>
        <path d="M26.1907 111.388H26.5479V114.702H26.1907V111.388Z" fill="#F2F2F2"/>
        <path d="M15.2971 111.388H15.6543V114.702H15.2971V111.388Z" fill="#F2F2F2"/>
        <path d="M6.99998 64.2246H32V64.5829H6.99998V64.2246Z" fill="#F2F2F2"/>
        <path d="M24.8577 61H25.2148V64.3143H24.8577V61Z" fill="#F2F2F2"/>
        <path d="M13.9641 61H14.3213V64.3143H13.9641V61Z" fill="#F2F2F2"/>
        <path d="M126 108.225H151V108.583H126V108.225Z" fill="#F2F2F2"/>
        <path d="M132.964 105H133.321V108.314H132.964V105Z" fill="#F2F2F2"/>
        <path d="M0 133.468H160V133.826H0V133.468Z" fill="#2F2E41"/>
        <path d="M124.241 63.2241H149.241V63.5824H124.241V63.2241Z" fill="#F2F2F2"/>
        <path d="M142.099 59.999H142.456V63.3133H142.099V59.999Z" fill="#F2F2F2"/>
        <path d="M131.205 59.999H131.562V63.3133H131.205V59.999Z" fill="#F2F2F2"/>
        <path d="M115.491 10.1953H140.491V10.5536H115.491V10.1953Z" fill="#F2F2F2"/>
        <path d="M122.277 10.4639H122.634V13.7782H122.277V10.4639Z" fill="#F2F2F2"/>
        <path d="M133.17 10.4639H133.527V13.7782H133.17V10.4639Z" fill="#F2F2F2"/>
        <path d="M90.3125 45.4878H115.312V45.8461H90.3125V45.4878Z" fill="#F2F2F2"/>
        <path d="M97.0989 45.7568H97.4561V49.0711H97.0989V45.7568Z" fill="#F2F2F2"/>
        <path d="M107.991 45.7568H108.349V49.0711H107.991V45.7568Z" fill="#F2F2F2"/>
        <path d="M132.813 45.3086H157.812V45.6669H132.813V45.3086Z" fill="#F2F2F2"/>
        <path d="M139.599 45.5776H139.956V48.8919H139.599V45.5776Z" fill="#F2F2F2"/>
        <path d="M150.491 45.5776H150.849V48.8919H150.491V45.5776Z" fill="#F2F2F2"/>
        <path d="M102.812 27.3936H127.812V27.7519H102.812V27.3936Z" fill="#F2F2F2"/>
        <path d="M120.67 24.1689H121.027V27.4832H120.67V24.1689Z" fill="#F2F2F2"/>
        <path d="M109.777 24.1689H110.134V27.4832H109.777V24.1689Z" fill="#F2F2F2"/>
        <path d="M130 87.4092H155V87.7675H130V87.4092Z" fill="#F2F2F2"/>
        <path d="M147.857 84.1846H148.214V87.4989H147.857V84.1846Z" fill="#F2F2F2"/>
        <path d="M136.964 84.1846H137.321V87.4989H136.964V84.1846Z" fill="#F2F2F2"/>
        <path d="M63.0945 61C57.4656 61 52.1592 63.2229 48.1799 67.2434C44.1846 71.28 41.984 76.6418 42.0001 82.3463C42.0002 88.051 44.219 93.3983 48.2139 97.4345L80.0241 125L111.804 97.4973C115.799 93.4608 118 88.0993 118 82.3952C118.016 76.6909 115.832 71.3289 111.836 67.292C107.841 63.2552 102.55 61.0486 96.9055 61.0486C91.2605 61.0486 85.9541 63.2715 81.9588 67.3082L80.0241 69.2629L78.0573 67.2758C74.0621 63.2393 68.7398 61 63.0945 61Z" fill="#FF6584"/>
        <path d="M72.0945 56C66.4656 56 61.1592 58.2229 57.1799 62.2434C53.1846 66.28 50.984 71.6418 51.0001 77.3463C51.0002 83.051 53.219 88.3982 57.2139 92.4345L89.0241 120L120.804 92.4973C124.799 88.4608 127 83.0993 127 77.3952C127.016 71.6909 124.832 66.3289 120.836 62.292C116.841 58.2552 111.55 56.0486 105.905 56.0486C100.26 56.0486 94.9541 58.2715 90.9588 62.3082L89.0241 64.2629L87.0573 62.2758C83.0621 58.2393 77.7398 56 72.0945 56Z" stroke="#3F3D56" stroke-width="0.5"/>
    </g>
    <defs>
        <clipPath id="clip0">
            <rect width="160" height="134" fill="white" transform="matrix(-1 0 0 1 160 0)"/>
        </clipPath>
    </defs>
</svg>
