<svg width="24" height="24" viewBox="0 0 24 24" fill="none" xmlns="http://www.w3.org/2000/svg">
    <g transform="translate(-49.877 -61.256)">
        <path d="m61.182 81.974c-1.063-.64394-2.225-1.4594-3.3125-2.3247-3.0057-2.3915-4.9348-4.7798-5.6535-6.9995-.24442-.7548-.34091-1.3473-.33963-2.0853.003-1.7036.59984-3.2206 1.7453-4.4358.91982-.97579 2.0939-1.6043 3.3954-1.8175.54647-.08954 1.5616-.06735 2.0709.04524.8672.1917 1.6743.56316 2.3703 1.0908l.41413.314.41413-.314c1.1067-.83911 2.3725-1.2396 3.751-1.1868.95796.03666 1.6605.21812 2.469.63744 2.2193 1.1511 3.5559 3.6243 3.3488 6.1966-.08591 1.067-.32307 1.8989-.84478 2.9629-.88236 1.7995-2.3903 3.5452-4.5818 5.3044-1.1631.93359-2.5668 1.8892-3.7735 2.569-.75394.42469-.83923.4272-1.4731.0432zm1.1476-1.4784c1.0271-.58127 2.5238-1.6315 3.6388-2.5533.71452-.5907 2.0778-1.947 2.5421-2.5291.9827-1.232 1.6417-2.5203 1.9051-3.724.06508-.29745.08424-.56852.08111-1.1478-.0036-.65835-.01965-.81623-.12113-1.1973-.24401-.91528-.61113-1.5781-1.2301-2.2208-.47744-.49578-.82137-.74674-1.3957-1.0184-.59068-.27942-1.0445-.39222-1.7008-.42274-1.3343-.06202-2.5256.40494-3.4773 1.363-.36499.36744-.44802.41694-.69935.41694-.25134 0-.33438-.04951-.69936-.41694-.40367-.40638-.80235-.68629-1.3392-.94026-.71818-.33974-1.0328-.40635-1.9194-.40635-.88938 0-1.2239.07072-1.9226.40652-.56186.27001-.78449.42565-1.2464.87118-.93595.90287-1.4393 2.0155-1.5101 3.338-.09509 1.775.7985 3.6229 2.799 5.7885.84858.91859 2.1862 2.0941 3.4679 3.0475.52265.38881 2.309 1.5945 2.3624 1.5945.01361 0 .22299-.1121.46509-.24911z" style="fill:#000000;stroke-width:.045992"/>
    </g>
</svg>