<svg width="20" height="20" viewBox="0 0 20 20" fill="none" xmlns="http://www.w3.org/2000/svg">
<path d="M12.9753 12.9754L17.4999 17.5M8.63627 2.5C7.42262 2.5 6.23622 2.85989 5.22711 3.53416C4.21799 4.20843 3.43149 5.16679 2.96704 6.28806C2.5026 7.40932 2.38108 8.64314 2.61785 9.83347C2.85462 11.0238 3.43905 12.1172 4.29723 12.9754C5.15541 13.8335 6.2488 14.418 7.43913 14.6547C8.62946 14.8915 9.86327 14.77 10.9845 14.3056C12.1058 13.8411 13.0642 13.0546 13.7384 12.0455C14.4127 11.0364 14.7726 9.84998 14.7726 8.63633C14.7725 7.0089 14.126 5.44817 12.9752 4.2974C11.8244 3.14664 10.2637 2.5001 8.63627 2.5Z" stroke="black" stroke-miterlimit="10"/>
</svg>
