<svg width="24" height="24" viewBox="0 0 24 24" fill="none" xmlns="http://www.w3.org/2000/svg">
    <path d="M20.4697 21.5303C20.7626 21.8232 21.2374 21.8232 21.5303 21.5303C21.8232 21.2374 21.8232 20.7626 21.5303 20.4697L20.4697 21.5303ZM14.6864 5.62639C17.1883 8.12825 17.1883 12.1846 14.6864 14.6864L15.7471 15.7471C18.8347 12.6594 18.8347 7.65338 15.7471 4.56573L14.6864 5.62639ZM14.6864 14.6864C12.1846 17.1883 8.12825 17.1883 5.62639 14.6864L4.56573 15.7471C7.65338 18.8347 12.6594 18.8347 15.7471 15.7471L14.6864 14.6864ZM5.62639 14.6864C3.12454 12.1846 3.12454 8.12825 5.62639 5.62639L4.56573 4.56573C1.47809 7.65338 1.47809 12.6594 4.56573 15.7471L5.62639 14.6864ZM5.62639 5.62639C8.12825 3.12454 12.1846 3.12454 14.6864 5.62639L15.7471 4.56573C12.6594 1.47809 7.65338 1.47809 4.56573 4.56573L5.62639 5.62639ZM14.6864 15.7471L20.4697 21.5303L21.5303 20.4697L15.7471 14.6864L14.6864 15.7471Z" fill="#111111"/>
</svg>