<svg width="32" height="32" viewBox="0 0 32 32" fill="none" xmlns="http://www.w3.org/2000/svg">
<path d="M31.5 16C31.5 24.5604 24.5604 31.5 16 31.5C7.43959 31.5 0.5 24.5604 0.5 16C0.5 7.43959 7.43959 0.5 16 0.5C24.5604 0.5 31.5 7.43959 31.5 16Z" stroke="#F0F1F3"/>
<path d="M10.6555 18.5656L9.98719 21.1385L7.54448 21.1918C6.81447 19.7955 6.40039 18.1979 6.40039 16.5002C6.40039 14.8585 6.78754 13.3104 7.47379 11.9473H7.47432L9.64902 12.3584L10.6017 14.5876C10.4023 15.1871 10.2936 15.8306 10.2936 16.5002C10.2937 17.2269 10.4213 17.9232 10.6555 18.5656Z" fill="#FBBB00"/>
<path d="M25.4321 14.6504C25.5424 15.2493 25.5999 15.8677 25.5999 16.4998C25.5999 17.2086 25.5276 17.9 25.39 18.5669C24.9226 20.8363 23.7015 22.8179 22.0099 24.2202L22.0094 24.2197L19.2703 24.0755L18.8826 21.5799C20.005 20.901 20.8822 19.8386 21.3443 18.5669H16.2109V14.6504H21.4192H25.4321Z" fill="#518EF8"/>
<path d="M22.0103 24.2189L22.0108 24.2194C20.3657 25.5831 18.2758 26.399 16.0008 26.399C12.3449 26.399 9.16638 24.2918 7.54492 21.1907L10.656 18.5645C11.4667 20.7957 13.5539 22.3841 16.0008 22.3841C17.0526 22.3841 18.0379 22.0909 18.8835 21.579L22.0103 24.2189Z" fill="#28B446"/>
<path d="M22.1279 8.87878L19.0179 11.5044C18.1428 10.9404 17.1084 10.6145 16.0002 10.6145C13.4979 10.6145 11.3716 12.2758 10.6015 14.5871L7.47416 11.9467H7.47363C9.07136 8.76999 12.29 6.59961 16.0002 6.59961C18.3295 6.59961 20.4653 7.45526 22.1279 8.87878Z" fill="#F14336"/>
</svg>

