<svg width="160" height="28" viewBox="0 0 160 28" fill="none" xmlns="http://www.w3.org/2000/svg">
<path d="M14.1586 14.1161V13.4194H12.77H10.1086H4.67V2.15482H15.2L16.82 5.87096H17.3986V1.34194H0.619995V2.27096V25.9613V27.1226H4.55429V25.9613V22.3613V14.1161H9.99286H12.6543H14.1586ZM31.8629 1.2258H28.0443V2.38709V25.8452V27.0065H31.8629V25.8452V16.9032V14.8129V2.27096V1.2258ZM64.7257 14.5806H58.4771V14.929L60.7914 15.5097V18.9935C60.7914 21.3161 61.7172 25.9613 55.4686 25.9613C49.4514 25.9613 46.3271 20.9677 46.3271 13.8839C46.3271 5.75483 49.7986 1.69031 55.4686 1.69031C58.0143 1.69031 62.6429 2.38709 63.6843 7.6129H64.2629V2.61936L63.9157 2.27096L62.2957 3.20001C60.3286 1.69033 57.4357 0.99353 54.6586 0.99353C47.1372 0.99353 42.0457 5.98709 42.0457 14C42.0457 22.129 47.0214 27.0065 54.7743 27.0065C57.5514 27.0065 59.9814 26.4258 62.0643 25.1484L64.0314 26.0774L64.4943 25.6129V21.5484V15.6258L64.7257 14.5806ZM87.0586 1.2258H85.7857L75.14 25.8452L74.6771 27.0065H75.3714L75.8343 25.729L78.9586 18.529H90.0671L93.1914 26.0774L93.6543 27.2387H97.7043L97.2414 26.0774L95.0429 20.6194L87.0586 1.2258ZM84.86 5.40645L89.8357 17.7161H79.5372L84.86 5.40645ZM126.054 8.30968C126.054 3.89678 122.351 1.34194 116.913 1.34194H108.35V2.27096V25.9613V27.1226H112.284V25.9613V20.9677V15.2774H116.566L123.161 27.1226H128.716V26.7742L128.253 26.6581L126.633 26.1935L126.054 25.0323L122.004 17.8322C121.426 16.6709 120.616 15.6258 119.459 15.1613C123.509 14.3484 126.054 11.9097 126.054 8.30968ZM116.566 2.03872C119.806 2.03872 122.004 4.01291 122.004 8.30968C122.004 12.3742 119.806 14.4645 116.566 14.4645H112.516V2.15482H116.566V2.03872ZM134.617 14.1161C134.617 22.2452 139.593 27.1226 146.883 27.1226C154.057 27.1226 159.149 22.129 159.149 14.1161C159.149 6.10323 154.057 1.10967 146.883 1.10967C139.593 1.10967 134.617 6.10323 134.617 14.1161ZM138.783 14.1161C138.783 5.87097 142.139 1.57418 146.999 1.57418C151.743 1.57418 155.099 5.87097 155.099 14.1161C155.099 22.3613 151.743 26.6581 146.999 26.6581C142.139 26.6581 138.783 22.3613 138.783 14.1161Z" fill="black"/>
</svg>
