<svg width="115" height="17" viewBox="0 0 115 17" fill="none" xmlns="http://www.w3.org/2000/svg">
<path d="M5.448 14.056C5.448 14.552 5.488 14.912 5.568 15.136C5.648 15.36 5.8 15.512 6.024 15.592C6.264 15.672 6.64 15.712 7.152 15.712C7.2 15.712 7.224 15.76 7.224 15.856C7.224 15.952 7.2 16 7.152 16C6.624 16 6.208 15.992 5.904 15.976L4.08 15.952L2.304 15.976C1.984 15.992 1.552 16 1.008 16C0.976 16 0.96 15.952 0.96 15.856C0.96 15.76 0.976 15.712 1.008 15.712C1.52 15.712 1.896 15.672 2.136 15.592C2.376 15.512 2.536 15.36 2.616 15.136C2.712 14.896 2.76 14.536 2.76 14.056V2.944C2.76 2.464 2.712 2.112 2.616 1.888C2.536 1.664 2.376 1.512 2.136 1.432C1.896 1.336 1.52 1.288 1.008 1.288C0.976 1.288 0.96 1.24 0.96 1.144C0.96 1.048 0.976 1 1.008 1L2.304 1.024C3.04 1.056 3.632 1.072 4.08 1.072C4.576 1.072 5.192 1.056 5.928 1.024L7.152 1C7.2 1 7.224 1.048 7.224 1.144C7.224 1.24 7.2 1.288 7.152 1.288C6.656 1.288 6.288 1.336 6.048 1.432C5.808 1.528 5.648 1.696 5.568 1.936C5.488 2.16 5.448 2.512 5.448 2.992V14.056ZM18.0271 16.096C17.5151 16.096 16.9071 16.072 16.2031 16.024C15.9471 16.008 15.6271 15.992 15.2431 15.976C14.8751 15.96 14.4591 15.952 13.9951 15.952L12.2191 15.976C11.8991 15.992 11.4671 16 10.9231 16C10.8911 16 10.8751 15.952 10.8751 15.856C10.8751 15.76 10.8911 15.712 10.9231 15.712C11.4351 15.712 11.8111 15.672 12.0511 15.592C12.2911 15.512 12.4511 15.36 12.5311 15.136C12.6271 14.896 12.6751 14.536 12.6751 14.056V2.944C12.6751 2.464 12.6271 2.112 12.5311 1.888C12.4511 1.664 12.2911 1.512 12.0511 1.432C11.8271 1.336 11.4671 1.288 10.9711 1.288C10.9231 1.288 10.8991 1.24 10.8991 1.144C10.8991 1.048 10.9231 1 10.9711 1L12.2431 1.024C12.9791 1.056 13.5631 1.072 13.9951 1.072C14.6511 1.072 15.3231 1.048 16.0111 1C16.8431 0.967999 17.4031 0.951999 17.6911 0.951999C19.3071 0.951999 20.7391 1.272 21.9871 1.912C23.2511 2.552 24.2271 3.424 24.9151 4.528C25.6031 5.632 25.9471 6.872 25.9471 8.248C25.9471 9.8 25.5871 11.176 24.8671 12.376C24.1631 13.56 23.2031 14.48 21.9871 15.136C20.7871 15.776 19.4671 16.096 18.0271 16.096ZM17.7871 15.544C18.8111 15.544 19.7151 15.288 20.4991 14.776C21.2831 14.248 21.8911 13.472 22.3231 12.448C22.7711 11.424 22.9951 10.2 22.9951 8.776C22.9951 7.416 22.7871 6.184 22.3711 5.08C21.9551 3.96 21.3631 3.08 20.5951 2.44C19.8271 1.8 18.9391 1.48 17.9311 1.48C16.9391 1.48 16.2591 1.576 15.8911 1.768C15.5231 1.96 15.3391 2.368 15.3391 2.992V13.792C15.3391 14.432 15.5071 14.888 15.8431 15.16C16.1791 15.416 16.8271 15.544 17.7871 15.544ZM34.573 14.056C34.573 14.552 34.613 14.912 34.693 15.136C34.773 15.36 34.925 15.512 35.149 15.592C35.389 15.672 35.765 15.712 36.277 15.712C36.325 15.712 36.349 15.76 36.349 15.856C36.349 15.952 36.325 16 36.277 16C35.749 16 35.333 15.992 35.029 15.976L33.205 15.952L31.429 15.976C31.109 15.992 30.677 16 30.133 16C30.101 16 30.085 15.952 30.085 15.856C30.085 15.76 30.101 15.712 30.133 15.712C30.645 15.712 31.021 15.672 31.261 15.592C31.501 15.512 31.661 15.36 31.741 15.136C31.837 14.896 31.885 14.536 31.885 14.056V2.944C31.885 2.464 31.837 2.112 31.741 1.888C31.661 1.664 31.501 1.512 31.261 1.432C31.021 1.336 30.645 1.288 30.133 1.288C30.101 1.288 30.085 1.24 30.085 1.144C30.085 1.048 30.101 1 30.133 1L31.429 1.024C32.165 1.056 32.757 1.072 33.205 1.072C33.701 1.072 34.317 1.056 35.053 1.024L36.277 1C36.325 1 36.349 1.048 36.349 1.144C36.349 1.24 36.325 1.288 36.277 1.288C35.781 1.288 35.413 1.336 35.173 1.432C34.933 1.528 34.773 1.696 34.693 1.936C34.613 2.16 34.573 2.512 34.573 2.992V14.056ZM44.4401 13.96C44.4401 14.376 44.4721 14.68 44.5361 14.872C44.6001 15.048 44.7201 15.168 44.8961 15.232C45.0881 15.296 45.3921 15.328 45.8081 15.328H46.6241C47.8721 15.328 48.9521 15 49.8641 14.344C50.7761 13.672 51.3841 12.768 51.6881 11.632C51.6881 11.6 51.7201 11.584 51.7841 11.584C51.8161 11.584 51.8481 11.6 51.8801 11.632C51.9281 11.648 51.9521 11.664 51.9521 11.68C51.8081 13.264 51.7361 14.584 51.7361 15.64C51.7361 15.768 51.7041 15.864 51.6401 15.928C51.5921 15.976 51.5041 16 51.3761 16H40.0481C40.0161 16 40.0001 15.952 40.0001 15.856C40.0001 15.76 40.0161 15.712 40.0481 15.712C40.5601 15.712 40.9281 15.672 41.1521 15.592C41.3921 15.512 41.5521 15.36 41.6321 15.136C41.7281 14.896 41.7761 14.536 41.7761 14.056V2.944C41.7761 2.464 41.7281 2.112 41.6321 1.888C41.5521 1.664 41.3921 1.512 41.1521 1.432C40.9121 1.336 40.5441 1.288 40.0481 1.288C40.0161 1.288 40.0001 1.24 40.0001 1.144C40.0001 1.048 40.0161 1 40.0481 1L41.2721 1.024C42.0081 1.056 42.6161 1.072 43.0961 1.072C43.5761 1.072 44.1841 1.056 44.9201 1.024L46.1441 1C46.1921 1 46.2161 1.048 46.2161 1.144C46.2161 1.24 46.1921 1.288 46.1441 1.288C45.6481 1.288 45.2801 1.336 45.0401 1.432C44.8001 1.512 44.6401 1.672 44.5601 1.912C44.4801 2.136 44.4401 2.488 44.4401 2.968V13.96ZM59.5183 13.96C59.5183 14.376 59.5503 14.68 59.6143 14.872C59.6783 15.048 59.7983 15.168 59.9743 15.232C60.1663 15.296 60.4703 15.328 60.8863 15.328H61.7023C62.9503 15.328 64.0303 15 64.9423 14.344C65.8543 13.672 66.4623 12.768 66.7663 11.632C66.7663 11.6 66.7983 11.584 66.8623 11.584C66.8943 11.584 66.9263 11.6 66.9583 11.632C67.0063 11.648 67.0303 11.664 67.0303 11.68C66.8863 13.264 66.8143 14.584 66.8143 15.64C66.8143 15.768 66.7823 15.864 66.7183 15.928C66.6703 15.976 66.5823 16 66.4543 16H55.1263C55.0943 16 55.0783 15.952 55.0783 15.856C55.0783 15.76 55.0943 15.712 55.1263 15.712C55.6383 15.712 56.0063 15.672 56.2303 15.592C56.4703 15.512 56.6303 15.36 56.7103 15.136C56.8063 14.896 56.8543 14.536 56.8543 14.056V2.944C56.8543 2.464 56.8063 2.112 56.7103 1.888C56.6303 1.664 56.4703 1.512 56.2303 1.432C55.9903 1.336 55.6223 1.288 55.1263 1.288C55.0943 1.288 55.0783 1.24 55.0783 1.144C55.0783 1.048 55.0943 1 55.1263 1L56.3503 1.024C57.0863 1.056 57.6943 1.072 58.1743 1.072C58.6543 1.072 59.2623 1.056 59.9983 1.024L61.2223 1C61.2703 1 61.2943 1.048 61.2943 1.144C61.2943 1.24 61.2703 1.288 61.2223 1.288C60.7263 1.288 60.3583 1.336 60.1183 1.432C59.8783 1.512 59.7183 1.672 59.6383 1.912C59.5583 2.136 59.5183 2.488 59.5183 2.968V13.96ZM74.9324 14.056C74.9324 14.552 74.9724 14.912 75.0524 15.136C75.1324 15.36 75.2844 15.512 75.5084 15.592C75.7484 15.672 76.1244 15.712 76.6364 15.712C76.6844 15.712 76.7084 15.76 76.7084 15.856C76.7084 15.952 76.6844 16 76.6364 16C76.1084 16 75.6924 15.992 75.3884 15.976L73.5644 15.952L71.7884 15.976C71.4684 15.992 71.0364 16 70.4924 16C70.4604 16 70.4444 15.952 70.4444 15.856C70.4444 15.76 70.4604 15.712 70.4924 15.712C71.0044 15.712 71.3804 15.672 71.6204 15.592C71.8604 15.512 72.0204 15.36 72.1004 15.136C72.1964 14.896 72.2444 14.536 72.2444 14.056V2.944C72.2444 2.464 72.1964 2.112 72.1004 1.888C72.0204 1.664 71.8604 1.512 71.6204 1.432C71.3804 1.336 71.0044 1.288 70.4924 1.288C70.4604 1.288 70.4444 1.24 70.4444 1.144C70.4444 1.048 70.4604 1 70.4924 1L71.7884 1.024C72.5244 1.056 73.1164 1.072 73.5644 1.072C74.0604 1.072 74.6764 1.056 75.4124 1.024L76.6364 1C76.6844 1 76.7084 1.048 76.7084 1.144C76.7084 1.24 76.6844 1.288 76.6364 1.288C76.1404 1.288 75.7724 1.336 75.5324 1.432C75.2924 1.528 75.1324 1.696 75.0524 1.936C74.9724 2.16 74.9324 2.512 74.9324 2.992V14.056ZM95.6235 15.712C95.6715 15.712 95.6955 15.76 95.6955 15.856C95.6955 15.952 95.6715 16 95.6235 16H92.9355C92.6795 16 92.4635 16.008 92.2875 16.024C92.1115 16.04 91.9675 16.048 91.8555 16.048C91.5995 16.048 91.3755 15.992 91.1835 15.88C91.0075 15.752 90.7835 15.528 90.5115 15.208C90.2555 14.888 89.7915 14.272 89.1195 13.36C89.0395 13.248 88.9435 13.128 88.8315 13C88.7355 12.856 88.6235 12.696 88.4955 12.52L85.3515 8.296L84.8235 8.824V14.056C84.8235 14.552 84.8635 14.912 84.9435 15.136C85.0235 15.36 85.1755 15.512 85.3995 15.592C85.6395 15.672 86.0155 15.712 86.5275 15.712C86.5915 15.712 86.6235 15.76 86.6235 15.856C86.6235 15.952 86.5915 16 86.5275 16C85.9995 16 85.5835 15.992 85.2795 15.976L83.4795 15.952L81.7035 15.976C81.3835 15.992 80.9515 16 80.4075 16C80.3755 16 80.3595 15.952 80.3595 15.856C80.3595 15.76 80.3755 15.712 80.4075 15.712C80.9195 15.712 81.2955 15.672 81.5355 15.592C81.7755 15.512 81.9355 15.36 82.0155 15.136C82.1115 14.896 82.1595 14.536 82.1595 14.056V2.944C82.1595 2.464 82.1115 2.112 82.0155 1.888C81.9355 1.664 81.7755 1.512 81.5355 1.432C81.3115 1.336 80.9515 1.288 80.4555 1.288C80.4075 1.288 80.3835 1.24 80.3835 1.144C80.3835 1.048 80.4075 1 80.4555 1L81.7275 1.024C82.4635 1.056 83.0475 1.072 83.4795 1.072C83.9595 1.072 84.5675 1.056 85.3035 1.024L86.5275 1C86.5755 1 86.5995 1.048 86.5995 1.144C86.5995 1.24 86.5755 1.288 86.5275 1.288C86.0315 1.288 85.6635 1.336 85.4235 1.432C85.1995 1.528 85.0395 1.696 84.9435 1.936C84.8635 2.16 84.8235 2.512 84.8235 2.992V8.08L89.3355 3.472C89.7995 3.008 90.0315 2.584 90.0315 2.2C90.0315 1.912 89.9035 1.688 89.6475 1.528C89.3915 1.368 89.0315 1.288 88.5675 1.288C88.5195 1.288 88.4955 1.24 88.4955 1.144C88.4955 1.048 88.5195 1 88.5675 1L89.6955 1.024C90.3995 1.056 91.0555 1.072 91.6635 1.072C92.3195 1.072 92.9995 1.056 93.7035 1.024L94.7835 1C94.8315 1 94.8555 1.048 94.8555 1.144C94.8555 1.24 94.8315 1.288 94.7835 1.288C94.0475 1.288 93.2395 1.504 92.3595 1.936C91.4795 2.352 90.6795 2.912 89.9595 3.616L87.2475 6.376L90.7995 11.176C91.8395 12.664 92.6155 13.72 93.1275 14.344C93.6555 14.952 94.0795 15.336 94.3995 15.496C94.7195 15.64 95.1275 15.712 95.6235 15.712ZM114.622 15.712C114.702 15.712 114.742 15.76 114.742 15.856C114.742 15.952 114.702 16 114.622 16C114.302 16 113.806 15.984 113.134 15.952C112.43 15.92 111.926 15.904 111.622 15.904C111.222 15.904 110.734 15.92 110.158 15.952C109.614 15.984 109.182 16 108.862 16C108.798 16 108.766 15.952 108.766 15.856C108.766 15.76 108.798 15.712 108.862 15.712C109.278 15.712 109.574 15.672 109.75 15.592C109.942 15.496 110.038 15.336 110.038 15.112C110.038 14.84 109.878 14.384 109.558 13.744L107.926 10.504H102.022L101.086 12.592C100.878 13.056 100.774 13.488 100.774 13.888C100.774 14.464 100.974 14.912 101.374 15.232C101.79 15.552 102.342 15.712 103.03 15.712C103.11 15.712 103.15 15.76 103.15 15.856C103.15 15.952 103.11 16 103.03 16C102.742 16 102.326 15.984 101.782 15.952C101.174 15.92 100.646 15.904 100.198 15.904C99.7661 15.904 99.2461 15.92 98.6381 15.952C98.0941 15.984 97.6541 16 97.3181 16C97.2541 16 97.2221 15.952 97.2221 15.856C97.2221 15.76 97.2541 15.712 97.3181 15.712C97.7661 15.712 98.1421 15.624 98.4461 15.448C98.7501 15.256 99.0541 14.928 99.3581 14.464C99.6621 13.984 100.022 13.28 100.438 12.352L105.646 0.904C105.678 0.855999 105.75 0.831999 105.862 0.831999C105.99 0.831999 106.062 0.855999 106.078 0.904L112.078 12.712C112.638 13.848 113.102 14.632 113.47 15.064C113.838 15.496 114.222 15.712 114.622 15.712ZM102.334 9.832H107.566L104.806 4.36L102.334 9.832Z" fill="white"/>
</svg>
